<?xml version="1.0" standalone="no"?>
<!DOCTYPE svg PUBLIC "-//W3C//DTD SVG 20010904//EN"
 "http://www.w3.org/TR/2001/REC-SVG-20010904/DTD/svg10.dtd">
<svg version="1.0" xmlns="http://www.w3.org/2000/svg"
 width="1080.000000pt" height="1080.000000pt" viewBox="0 0 1080.000000 1080.000000"
 preserveAspectRatio="xMidYMid meet">

<g transform="translate(0.000000,1080.000000) scale(0.100000,-0.100000)"
fill="#000000" stroke="none">
<path d="M3613 6949 c-347 -40 -595 -217 -720 -513 -49 -115 -66 -188 -139
-605 -90 -509 -92 -629 -11 -801 84 -179 282 -275 597 -287 303 -12 543 49
717 181 75 57 130 121 193 225 79 133 112 251 190 698 78 441 87 560 55 697
-64 277 -311 420 -715 415 -52 -1 -127 -5 -167 -10z m337 -29 c289 -33 458
-156 515 -375 31 -122 22 -253 -50 -663 -36 -205 -74 -408 -85 -450 -46 -182
-117 -310 -234 -428 -127 -127 -283 -195 -511 -223 -234 -29 -473 -1 -622 72
-190 92 -275 292 -244 571 17 152 128 770 156 871 63 225 185 396 357 501 171
105 457 154 718 124z"/>
<path d="M3632 6520 c-145 -31 -247 -128 -292 -280 -27 -89 -129 -665 -136
-770 -10 -142 22 -216 116 -263 100 -50 253 -46 360 8 89 46 150 135 184 270
36 141 126 688 126 764 0 130 -37 204 -126 247 -58 28 -161 39 -232 24z m206
-46 c23 -9 55 -31 71 -50 68 -76 67 -159 -5 -564 -30 -173 -62 -342 -70 -374
-35 -137 -107 -228 -208 -263 -67 -23 -226 -23 -277 0 -90 40 -127 121 -116
252 7 75 110 670 128 740 28 102 98 198 174 238 92 48 215 57 303 21z"/>
<path d="M911 6888 c-11 -57 -371 -2096 -371 -2104 0 -2 122 -4 270 -4 149 0
270 2 270 5 0 3 29 174 65 380 36 205 65 378 65 384 0 8 91 11 295 11 162 0
295 -3 295 -7 0 -5 -31 -180 -68 -391 l-68 -382 270 2 270 3 183 1040 c100
572 185 1057 188 1078 l7 37 -269 0 -269 0 -80 -452 -80 -453 -292 -3 c-273
-2 -292 -1 -292 15 0 10 36 215 78 456 l78 437 -267 0 -268 0 -10 -52z m509
17 c0 -2 -34 -194 -75 -427 -42 -232 -75 -434 -73 -448 l3 -25 309 -3 c170 -1
313 1 318 6 4 4 42 199 83 433 41 233 78 434 80 447 l5 22 238 0 238 0 -167
-957 c-93 -527 -175 -1000 -184 -1050 l-17 -93 -240 0 -240 0 5 30 c4 16 34
185 68 375 48 275 58 349 49 360 -10 13 -61 15 -309 15 -163 0 -303 -4 -311
-9 -10 -7 -34 -125 -80 -388 l-65 -378 -242 -3 -241 -2 13 67 c7 38 90 510
186 1051 l173 982 238 0 c131 0 238 -2 238 -5z"/>
<path d="M4991 6888 c-11 -57 -371 -2096 -371 -2104 0 -2 122 -4 270 -4 149 0
270 2 270 5 0 18 200 1159 204 1162 4 5 25 -59 262 -800 l118 -367 270 2 270
3 183 1040 c100 572 185 1057 188 1078 l7 37 -269 0 -269 0 -93 -532 c-52
-293 -97 -541 -100 -550 -3 -10 -83 211 -191 532 l-185 550 -277 0 -277 0 -10
-52z m727 -530 c171 -507 186 -548 207 -548 15 0 26 9 33 28 6 15 52 261 102
547 50 286 93 521 95 523 2 2 107 0 235 -4 228 -7 231 -7 227 -28 -3 -12 -85
-481 -183 -1044 l-179 -1022 -245 2 -245 3 -185 578 c-102 318 -191 582 -199
586 -23 14 -40 2 -51 -38 -6 -20 -51 -272 -100 -561 -49 -289 -92 -535 -95
-547 l-5 -23 -235 0 c-129 0 -235 3 -236 8 0 4 82 476 183 1050 l183 1042 254
-2 254 -3 185 -547z"/>
<path d="M7081 6888 c-11 -57 -371 -2096 -371 -2104 0 -2 337 -4 750 -4 l750
0 5 23 c12 55 75 413 75 429 0 17 -23 18 -480 18 -264 0 -480 1 -480 3 0 5 50
292 56 320 l6 27 399 0 c219 0 399 3 399 8 0 4 18 106 40 227 22 121 40 223
40 228 0 4 -179 7 -398 7 l-398 0 22 128 c12 70 27 160 34 200 l12 72 484 0
c266 0 484 3 484 8 0 4 18 106 40 227 22 121 40 223 40 228 0 4 -337 7 -749 7
l-750 0 -10 -52z"/>
<path d="M8730 6935 c0 -2 102 -300 226 -662 l226 -658 -71 -410 c-40 -225
-72 -413 -71 -417 0 -5 121 -8 268 -8 l268 0 64 363 c34 199 68 387 74 417 10
49 62 128 469 713 251 361 457 660 457 662 0 3 -119 5 -265 5 l-265 0 -252
-380 -253 -379 -37 -1 -37 0 -24 78 c-13 42 -66 213 -117 380 l-94 302 -283 0
c-156 0 -283 -2 -283 -5z"/>
</g>
</svg>
